<?xml version="1.0" encoding="UTF-8" standalone="no"?>
<!-- Created with Inkscape (http://www.inkscape.org/) -->

<svg
   version="1.1"
   id="svg1"
   width="1024"
   height="1024"
   viewBox="0 0 1024 1024"
   sodipodi:docname="login_illustration.svg"
   inkscape:version="1.4.2 (f4327f4, 2025-05-13)"
   xmlns:inkscape="http://www.inkscape.org/namespaces/inkscape"
   xmlns:sodipodi="http://sodipodi.sourceforge.net/DTD/sodipodi-0.dtd"
   xmlns="http://www.w3.org/2000/svg"
   xmlns:svg="http://www.w3.org/2000/svg">
  <defs
     id="defs1" />
  <sodipodi:namedview
     id="namedview1"
     pagecolor="#e5e6e0"
     bordercolor="#000000"
     borderopacity="0.25"
     inkscape:showpageshadow="2"
     inkscape:pageopacity="0.0"
     inkscape:pagecheckerboard="0"
     inkscape:deskcolor="#d1d1d1"
     inkscape:zoom="0.76718324"
     inkscape:cx="264.60432"
     inkscape:cy="480.32853"
     inkscape:window-width="2560"
     inkscape:window-height="1346"
     inkscape:window-x="-11"
     inkscape:window-y="-11"
     inkscape:window-maximized="1"
     inkscape:current-layer="g1" />
  <g
     inkscape:groupmode="layer"
     inkscape:label="Image"
     id="g1">
    <path
       d="m 251.22476,527.44314 c -5.3625,-2.71434 -9.75,-5.36495 -9.75,-5.89025 0,-0.52529 0.82016,-1.39402 1.82258,-1.9305 3.25883,-1.74407 7.29416,-8.77348 9.12699,-15.89889 2.01824,-7.84625 2.16942,-8.15836 6.63363,-13.69606 1.77354,-2.2 5.18035,-6.88132 7.5707,-10.40294 l 4.3461,-6.40294 10.63713,-3.74584 10.63713,-3.74584 0.41339,5.64878 c 0.26146,3.57276 1.62986,8.28334 3.72336,12.81731 1.82048,3.9427 3.12058,7.7367 2.88911,8.43111 -0.23147,0.69442 -1.90434,1.76206 -3.71749,2.37254 -2.93842,0.98936 -3.53726,1.86612 -5.51113,8.06889 -3.40422,10.69758 -3.98308,11.45893 -8.71234,11.45893 -2.23876,0 -6.73916,-0.69153 -10.00089,-1.53672 -6.90888,-1.79028 -8.16378,-1.39702 -6.82006,2.13722 1.21795,3.20346 1.20881,5.97017 -0.0345,10.44569 -2.03019,7.30797 -2.40492,7.36083 -13.25369,1.86951 z m -43.05223,-8.55127 c -0.86407,-0.86406 -0.88516,-6.59705 -0.043,-11.69383 0.44843,-2.71398 1.2884,-4.07868 2.88378,-4.68524 1.23808,-0.47072 4.72136,-4.64563 7.74062,-9.27759 l 5.48957,-8.42174 14.18217,-2.24316 c 7.80019,-1.23374 14.41546,-2.00987 14.70059,-1.72474 0.28514,0.28513 -2.58595,3.8665 -6.38019,7.95859 -4.31709,4.65598 -8.38423,10.37966 -10.86861,15.29534 -4.57828,9.05873 -6.64405,10.62081 -16.90266,12.78129 -3.85,0.81082 -7.69851,1.75201 -8.55223,2.09153 -0.85373,0.33953 -1.86623,0.30332 -2.25,-0.0805 z m -8.51732,-45.49305 c 0.23012,-1.53291 3.50109,-3.95442 11.68777,-8.65252 6.25252,-3.58813 13.06808,-8.14275 15.14568,-10.12137 3.40685,-3.24452 3.84841,-4.26178 4.50049,-10.36808 1.09844,-10.28626 0.23722,-18.70565 -2.08792,-20.41167 -1.05956,-0.77743 -2.60147,-1.20025 -3.42647,-0.93959 -0.825,0.26066 -4.7673,1.61925 -8.76066,3.01909 -7.59618,2.66277 -12.23934,2.35766 -12.23934,-0.80428 0,-1.95459 15.917,-13.74431 23.87717,-17.68582 5.74211,-2.84322 7.04662,-3.10978 13.09958,-2.67669 10.4433,0.74721 15.30495,3.87036 31.31647,20.11782 l 13.79321,13.99648 5.77026,-0.2355 c 3.17364,-0.12952 9.32964,-0.57549 13.68,-0.99103 9.06543,-0.86593 12.3939,-0.46267 13.1844,1.59734 0.90188,2.35024 -2.4752,4.7883 -15.72109,11.34972 -32.5325,16.11515 -66.26268,24.93472 -95.36213,24.93472 -8.38717,0 -8.76278,-0.0945 -8.45742,-2.12862 z"
       style="display:inline;fill:#103457;fill-opacity:1"
       id="path1-1" />
    <path
       style="display:inline;fill:#6193b8;fill-opacity:1"
       d="m 189.5,636.23824 c -14.59383,-0.34728 -14.50677,-0.24749 -14.48048,-16.59902 0.0436,-27.10324 5.33768,-50.51258 16.38445,-72.44853 10.27397,-20.40138 27.17701,-23.63793 51.34846,-9.83209 11.28881,6.44775 21.15376,10.13274 24.72587,9.2362 1.94988,-0.48939 2.75111,-1.78122 4.11118,-6.62846 0.92911,-3.31133 2.05507,-6.24666 2.50213,-6.52296 0.88712,-0.54827 8.89452,7.65857 10.24532,10.50051 0.93299,1.96291 -8.95989,19.90292 -14.16441,30.54172 -9.25104,18.91048 -18.99482,21.34068 -30.04651,24.51439 -2.66547,0.76544 -3.10437,-0.43228 -5.17121,-6.75 -2.96037,-9.04895 -8.16927,-20.3244 -10.43542,-22.58901 -1.72609,-1.72492 -1.89988,-1.73245 -2.80147,-0.1214 -0.52868,0.94468 -1.19445,7.46811 -1.47951,14.4965 l -0.51829,12.77889 -5.79875,1.62705 c -7.74477,2.17307 -14.70951,6.99282 -18.67136,12.92098 -3.13034,4.68398 -4.15897,8.95718 -2.4155,10.0347 0.45897,0.28367 3.16326,-1.23405 6.00954,-3.3727 2.84627,-2.13865 7.75769,-4.85474 10.91426,-6.03577 7.50878,-2.80939 18.05207,-3.6952 20.64256,-1.73432 1.86456,1.4114 1.86093,1.58979 -0.19046,9.34198 -1.15023,4.3467 -2.39704,10.05943 -2.77068,12.69495 l -0.67936,4.79184 -13.13018,-0.29184 C 206.40858,636.63133 195.55,636.38221 189.5,636.23824 Z m 45.24743,0.10356 c -0.64688,-1.12493 4.03109,-19.37 5.38452,-21.00079 C 241.59673,613.57606 252.92396,608 255.0445,608 c 1.33942,0 1.85696,1.17362 2.31511,5.25 1.39815,12.43995 1.81411,21.52401 1.00803,22.01438 -1.57021,0.95524 -23.12508,1.93844 -23.62021,1.07742 z m 31.89227,-7.10505 c -0.33973,-2.05521 -0.62264,-6.30691 -0.62869,-9.44821 l -0.011,-5.71145 4.25,-1.11267 c 2.3375,-0.61196 9.12605,-3.36237 15.08567,-6.11201 5.95961,-2.74964 12.03461,-5.07878 13.5,-5.17588 4.14912,-0.27491 3.0348,3.54078 -3.28017,11.23209 -9.78771,11.92094 -17.07409,17.44091 -25.67681,19.45207 -2.40211,0.56157 -2.67296,0.30035 -3.23899,-3.12394 z"
       id="path1-3"
       sodipodi:nodetypes="sssssssssssssscsssssssscsssssssssscsssssss" />
    <path
       style="display:inline;fill:#103457;fill-opacity:1"
       d="m 435.98665,757.34906 c -8.8635,-5.89799 -27.01001,-24.73105 -33.7335,-35.00979 -9.52148,-14.55624 -14.9065,-29.78864 -14.0812,-39.83095 0.55817,-6.7918 2.97685,-5.78223 9.35724,3.90574 12.01554,18.24438 32.45299,31.77862 39.76873,26.33594 2.00842,-1.4942 3.69299,-9.69408 3.72594,-18.13649 0.0252,-6.47196 1.26912,-13.34337 2.6484,-14.63042 0.45526,-0.42481 2.26069,-1.07406 4.01208,-1.44277 4.48199,-0.94358 5.9636,1.76843 8.24053,15.08384 1.02287,5.98171 2.82487,13.08948 4.00444,15.79504 1.17957,2.70556 3.06687,8.47689 4.194,12.82518 l 2.04933,7.90598 -5.90092,6.17482 c -5.82466,6.09503 -12.39967,15.09455 -15.65287,21.42482 -0.91861,1.7875 -2.00216,3.25 -2.40788,3.25 -0.40572,0 -3.20666,-1.64292 -6.22432,-3.65094 z m 33.71367,-54.4986 c -2.02803,-3.22644 -3.43824,-8.09473 -4.71417,-16.27421 -1.38152,-8.85638 -4.50537,-16.09771 -8.02581,-18.60449 C 455.00876,666.58211 452.562,666 448.67255,666 c -4.82208,0 -5.9048,0.38609 -8.57736,3.05866 -1.83585,1.83584 -3.79182,5.44693 -4.89253,9.0325 -2.22674,7.25362 -0.52615,8.89648 -18.20941,-17.59116 -7.34365,-11 -19.38233,-28.69422 -26.75261,-39.32048 -7.37029,-10.62627 -13.1856,-19.88058 -12.92291,-20.56514 0.27382,-0.71355 5.96177,-2.25652 13.32995,-3.616 27.76084,-5.12206 55.31597,-1.77205 68.56884,8.33626 2.28355,1.74172 7.33903,7.89144 11.2344,13.66606 3.89537,5.77461 17.98748,26.54187 31.31579,46.14946 C 515.09502,684.75775 526,701.26869 526,701.84114 c 0,2.22403 -2.63244,2.33014 -14.87949,0.5998 -13.21673,-1.86735 -15.25818,-1.7428 -37.28164,2.27455 -2.02051,0.36857 -3.01678,-0.0804 -4.13855,-1.86503 z M 520,678.29695 C 514.225,669.69938 500.3875,649.37337 489.25,633.12804 478.1125,616.88271 469,603.04613 469,602.3801 c 0,-1.84317 11.452,-11.45674 21.16028,-17.76335 9.96742,-6.47494 22.06888,-12.24637 34.5957,-16.4994 13.78988,-4.68185 11.31139,-6.12464 26.42498,15.38265 7.34342,10.45 16.84859,23.67091 21.12261,29.37979 l 7.77094,10.37979 -1.48895,4.62021 c -0.81893,2.54112 -2.20912,7.54521 -3.08932,11.12021 -0.8802,3.575 -3.38985,12.23494 -5.577,19.24432 -3.94893,12.65553 -4.00604,12.7593 -8.19794,14.89579 -5.94694,3.031 -17.15578,10.5146 -24.12917,16.10989 -3.25594,2.6125 -6.18365,4.734 -6.50602,4.71444 C 530.76375,693.94489 525.775,686.89451 520,678.29695 Z M 308.70197,609.36864 c -0.34725,-0.34725 0.0277,-1.57238 0.83334,-2.72251 C 310.34089,605.496 311,602.63012 311,600.27749 c 0,-4.861 -2.58517,-8.2819 -6.25,-8.27048 -3.62818,0.0113 -17.74946,3.68262 -24.25,6.30464 -3.3,1.33107 -7.2375,2.71405 -8.75,3.07329 -2.37858,0.56495 -2.75454,0.3467 -2.78364,-1.61589 C 268.91065,596.01178 295.15489,544 297.10645,544 c 6.9781,0 33.97639,10.96202 44.57158,18.09724 l 5.10439,3.43749 -11.51909,22.23264 L 323.74423,610 h -7.20545 c -3.96299,0 -7.48956,-0.28411 -7.83681,-0.63136 z M 333,609.62251 c 0,-0.35155 5.13299,-10.87292 11.40665,-23.38084 8.32656,-16.60086 12.44444,-23.72206 15.25,-26.37241 5.95299,-5.62368 19.66628,-15.3909 25.87139,-18.42678 5.09956,-2.49498 5.74351,-2.5995 7.17802,-1.165 1.4345,1.4345 0.88809,2.74348 -6.0907,14.59092 -4.21662,7.15827 -10.61485,18.66347 -14.21829,25.56712 -5.81097,11.13293 -6.76166,12.43972 -8.40865,11.55828 -3.63834,-1.94718 -5.56361,-0.8815 -14.51883,8.03649 -7.24988,7.21973 -9.80999,9.15069 -12.76879,9.63084 -2.03544,0.3303 -3.7008,0.31293 -3.7008,-0.0386 z m 9.5,-54.24595 c -6.44146,-4.52607 -22.17724,-12.47232 -30.5,-15.40189 -8.30814,-2.92441 -9.71753,-4.11428 -7.5,-6.33181 2.35225,-2.35225 4.39686,-2.08737 15.29367,1.98133 11.15398,4.16472 19.22335,8.1046 24.13409,11.78351 l 3.42776,2.56793 6.07224,-5.81142 c 5.7012,-5.45632 13.39798,-10.95426 20.41563,-14.58322 2.43067,-1.25695 3.57236,-1.34868 5.55316,-0.44617 4.51952,2.05923 3.8138,3.5513 -4.40302,9.30897 -4.34866,3.04719 -11.93347,8.91891 -16.85514,13.04827 -4.92167,4.12937 -9.32871,7.48315 -9.79344,7.45284 -0.46472,-0.0303 -3.09495,-1.63605 -5.84495,-3.56834 z m 312.99399,-21.79661 c -1.42468,-2.43103 -3.29424,-7.94353 -4.15457,-12.25 -0.86034,-4.30647 -1.89729,-8.19108 -2.30434,-8.63246 -0.40705,-0.44137 -5.64396,1.08021 -11.63759,3.38131 -12.1477,4.66379 -22.84524,6.1111 -27.37253,3.70333 -3.23513,-1.72055 -5.40715,-7.648 -9.58504,-26.15765 -1.84669,-8.18153 -3.48864,-14.97717 -3.64877,-15.10141 -0.16013,-0.12424 -3.89115,-0.63025 -8.29115,-1.12448 l -8,-0.89859 0.0858,-4.5 c 0.0568,-2.97728 1.47382,-7.58654 4.18765,-13.62146 6.65726,-14.80417 7.59531,-18.48757 6.87583,-26.999 l -0.63118,-7.46676 3.74094,0.68051 c 2.05751,0.37428 5.99093,1.55732 8.74093,2.62898 2.75,1.07166 12.2,4.10095 21,6.73174 13.27291,3.96799 16.20786,5.18915 17.21953,7.16463 0.67074,1.30975 2.96766,6.20636 5.10425,10.88136 2.1366,4.675 6.62843,12.05067 9.98185,16.39038 3.35342,4.33971 6.38253,9.18983 6.73137,10.77806 0.34883,1.58822 0.11357,5.97456 -0.52281,9.74741 -2.07517,12.30301 1.96225,24.94955 11.02408,34.5311 l 5.14555,5.44066 -9.07193,4.55619 C 665.1223,535.94971 660.37491,538 659.56211,538 c -0.81281,0 -2.64348,-1.98902 -4.06815,-4.42005 z"
       id="path33"
       sodipodi:nodetypes="ssssssssssscsssssssssssssssssssssssssssscsssssssssssssssscccssssssssssssssssssscssssssssssssssscssscssssssssscssss" />
    <g
       id="g18"
       style="display:inline">
      <path
         style="display:inline;fill:#6193b8;fill-opacity:1"
         d="m 563.5,821.27874 c -5.64397,-0.73346 -18.99516,-4.60628 -27.10515,-7.86248 -14.37283,-5.77077 -43.38946,-20.98048 -45.00125,-23.58841 -0.98857,-1.59955 1.69028,-11.04326 5.29384,-18.66229 6.9929,-14.78517 16.74277,-21.04701 30.99009,-19.90337 9.8179,0.78808 10.92846,1.94109 11.55586,11.99746 0.57877,9.27695 3.13524,16.42483 7.50732,20.99035 2.52381,2.63548 5.25929,3.64472 5.25929,1.94039 0,-0.44528 -0.94918,-4.56311 -2.10929,-9.15072 -2.42426,-9.58666 -2.26616,-19.09279 0.36125,-21.7202 1.49328,-1.49328 2.03552,-1.24436 6.934,3.18313 6.70267,6.0582 14.63743,9.7675 22.06404,10.31437 4.8988,0.36073 5.75,0.17323 5.75,-1.2666 0,-2.02468 -4.01618,-7.92202 -10.83756,-15.91384 -5.7313,-6.71469 -10.69427,-15.5211 -11.64871,-20.66978 -0.53496,-2.88575 0.72441,-7.32998 6.87207,-24.25118 7.97057,-21.93865 12.84438,-37.52905 17.10497,-54.71557 6.56889,-26.49782 12.25903,-39.87842 20.44931,-48.08737 8.83066,-8.85079 20.68129,-12.20854 35.17352,-9.96603 11.11401,1.71977 17.42647,5.02523 26.55965,13.90773 5.35669,5.20966 7.86977,19.72463 5.24591,30.29914 -0.72966,2.94059 -1.24731,5.64699 -1.15034,6.01422 0.097,0.36723 -2.62385,3.25129 -6.04626,6.40902 -13.99212,12.91003 -26.63928,29.64645 -33.25914,44.01297 -4.26996,9.26675 -9.13353,24.53853 -11.59551,36.41032 -2.25886,10.89233 -4.51111,18.99917 -9.54305,34.3495 -6.83107,20.83877 -14.18216,35.26852 -22.50557,44.17712 -8.51492,9.11358 -17.10556,12.94948 -26.31929,11.75212 z M 473,800.30626 c -11.0655,-8.45888 -17,-16.98136 -17,-24.41351 0,-4.81848 3.08164,-14.64998 6.32866,-20.19059 5.07166,-8.65414 15.26825,-15.63526 22.90241,-15.6802 2.92237,-0.0172 13.95438,4.2025 17.7606,6.79337 0.27042,0.18407 -0.40458,0.81185 -1.5,1.39506 -1.09542,0.58321 -4.54833,3.6512 -7.67314,6.81775 -9.63685,9.7656 -14.74555,22.45277 -15.74222,39.09497 L 477.5,803.74623 Z m 202.62342,-214.8682 c -7.52893,-2.75983 -20.60182,-4.52573 -35.02122,-4.73069 -9.81235,-0.13948 -14.59089,-0.5675 -14.59544,-1.30733 -0.0149,-2.42433 6.39583,-9.69589 13.58405,-15.40811 8.5445,-6.79 22.661,-14.01503 32.40919,-16.5875 3.83798,-1.01282 10.54196,-1.75403 16.36948,-1.80986 l 9.86948,-0.0946 2.58744,3.5 c 4.5139,6.10591 11.72623,12.40691 17.54267,15.326 3.09701,1.55429 5.63093,3.18111 5.63093,3.61514 0,1.10532 -4.01443,6.12729 -7,8.75684 -9.64638,8.49609 -30.19883,12.83744 -41.37658,8.74008 z M 716.68316,539.75 c -6.17774,-9.56462 -9.8262,-13.01553 -19.88704,-18.81021 -12.76214,-7.35054 -17.51683,-13.30298 -20.33862,-25.4621 -1.18235,-5.09477 -1.43484,-9.06486 -0.93569,-14.71228 l 0.68362,-7.73458 -5.85271,-6.40064 c -5.30605,-5.80279 -15.13562,-21.18063 -14.16144,-22.15481 0.21952,-0.21951 7.0612,1.16801 15.20374,3.08339 15.59922,3.66942 19.79682,5.67291 27.9374,13.33437 6.24333,5.87587 6.66645,7.35277 6.67735,23.3072 0.0113,16.52577 0.71382,18.74165 10.28827,32.45067 3.95214,5.65881 5.80692,9.43231 6.64702,13.52316 1.27966,6.23126 1.21249,17.82583 -0.10327,17.82583 -0.4565,0 -3.22789,-3.7125 -6.15863,-8.25 z M 732,441.84596 c -11.33921,-1.58259 -61.08058,-9.80484 -72,-11.90161 -16.59466,-3.18653 -45.02391,-10.65847 -63.0574,-16.5731 -29.1762,-9.56922 -56.26398,-24.47692 -68.77292,-37.84901 -5.88331,-6.28929 -7.20714,-8.76302 -5.31526,-9.93226 0.99927,-0.61759 17.73319,1.1743 49.75316,5.32763 12.59083,1.63316 24.86082,3.12454 27.26663,3.31416 l 4.37422,0.34477 7.27302,-9.13572 c 30.78026,-38.6634 67.13284,-72.99 84.13497,-79.44601 6.30882,-2.39557 21.0227,-4.97632 28.43703,-4.98774 8.23301,-0.0127 20.76561,5.41913 45.67465,19.79603 9.99265,5.76753 12.83161,7.83063 11.5,8.35718 -2.95763,1.16952 -13.53436,0.92005 -32.05374,-0.75604 -13.10732,-1.18627 -18.5478,-1.32131 -21.20146,-0.52625 -4.09502,1.2269 -8.78527,5.82921 -11.84408,11.62201 -3.31878,6.28515 -18.30939,40.62766 -24.15855,55.34565 l -5.30376,13.34565 -3.10326,-0.72981 c -9.35775,-2.20072 -16.18667,-3.09258 -17.10325,-2.23368 -1.74426,1.63449 8.25914,9.61188 17.90588,14.27936 5.00176,2.42005 13.81912,5.7203 19.59412,7.33388 16.31379,4.55819 26.98763,10.10359 40.30719,20.94087 6.87693,5.59532 9.69281,9.42091 9.69281,13.16842 0,1.90052 -0.56393,2.04068 -7.75,1.92623 -4.2625,-0.0679 -10.675,-0.53166 -14.25,-1.03061 z"
         id="path2"
         sodipodi:nodetypes="sssssssssssssssssssssssssssssssssssscssssssscsssssssssscsssssssssssssssscssssssssscssssssss" />
      <path
         style="fill:#6193b8;fill-opacity:1;stroke-width:0.651735"
         d="m 778.4972,446.35732 c -30.35143,-2.16095 -84.72965,-9.79787 -120.25423,-16.8886 -30.39912,-6.06769 -65.57543,-16.53281 -86.3457,-25.68827 -25.30809,-11.15571 -49.53184,-29.28884 -49.53184,-37.07796 v -1.59834 l 5.36075,0.41339 c 2.94841,0.22737 20.84468,2.33685 39.76948,4.68776 29.67908,3.68683 34.65037,4.15839 36.16672,3.43068 0.96688,-0.46403 4.07091,-3.62985 6.89783,-7.03516 32.07806,-38.6413 56.47061,-62.97013 75.82116,-75.6231 9.56685,-6.2556 20.84488,-9.22279 35.4149,-9.31751 10.46892,-0.0681 13.00123,0.62538 25.544,6.99477 14.43554,7.33058 44.21835,24.64798 44.17115,25.68359 -0.0113,0.24713 -0.77383,0.99841 -1.69459,1.66951 -2.69728,1.96593 -10.67211,2.52377 -29.73114,2.07973 -9.58865,-0.2234 -17.4339,-0.2861 -17.4339,-0.13932 0,0.14678 -0.89411,3.8195 -1.98691,8.16162 -3.2669,12.98066 -3.9164,19.75807 -4.33317,45.21578 l -0.38144,23.29952 h -3.68804 c -13.1675,0 -30.02404,-2.25557 -46.03036,-6.1593 -6.55958,-1.5998 -13.33888,-3.07964 -15.06511,-3.28855 -6.13965,-0.74301 -6.03724,1.53238 0.28733,6.38425 14.29779,10.96851 34.19775,17.49391 61.09581,20.03393 10.60686,1.00163 11.8246,1.37329 21.18138,6.46481 4.48067,2.43817 16.49287,8.89092 26.69377,14.33944 10.2009,5.44851 19.3987,10.51279 20.43956,11.25395 1.68394,1.19907 1.76924,1.41653 0.7741,1.97344 -1.1817,0.66131 -17.06753,1.16239 -23.14151,0.72994 z"
         id="path11" />
      <path
         style="fill:#6193b8;fill-opacity:1;stroke-width:0.651735"
         d="m 746.88806,555.15904 c -21.49183,-4.84196 -23.48684,-5.86514 -30.22556,-15.50171 -5.43669,-7.77463 -10.41798,-12.36995 -21.06258,-19.43059 -10.42085,-6.91222 -13.03048,-9.52998 -16.1536,-16.20394 -2.877,-6.14801 -3.89885,-11.91367 -3.9119,-22.07256 l -0.0113,-8.80606 -4.24463,-5.08513 c -7.16638,-8.58541 -15.4714,-21.99985 -14.32814,-23.14311 0.22708,-0.22708 4.2789,0.40675 9.00403,1.40851 31.44277,6.66609 38.86298,8.0108 63.62033,11.52943 7.68344,1.09201 14.34971,2.30069 14.81394,2.68597 0.46423,0.38528 2.58867,4.26214 4.72099,8.61526 4.63558,9.46353 7.40149,12.73409 19.14146,22.63389 9.30636,7.84764 12.27928,11.19969 13.84689,15.61275 2.32648,6.54941 2.76965,28.12278 0.6376,31.03853 -1.20201,1.64385 -5.56725,1.45752 -7.84595,-0.3349 -0.96124,-0.75611 -3.73648,-3.92088 -6.16721,-7.03283 -5.75584,-7.36895 -9.52184,-9.89798 -18.32317,-12.3048 -8.37264,-2.28959 -11.55186,-3.84757 -16.54587,-8.10834 -4.96746,-4.23811 -6.88814,-4.29658 -7.74046,-0.23565 -0.31426,1.4973 -0.37764,3.49428 -0.14086,4.43773 0.65332,2.60299 4.9518,6.87487 11.80784,11.73476 5.99865,4.25213 6.20885,4.48757 7.19487,8.05839 2.84225,10.29303 3.78174,12.73127 6.42355,16.67089 l 2.86896,4.27837 -3.03787,-0.0756 c -1.67083,-0.0416 -3.62443,-0.20775 -4.34134,-0.36926 z"
         id="path12" />
      <path
         style="fill:#6193b8;fill-opacity:1;stroke-width:0.651735"
         d="m 711.79315,601.82576 c -2.0964,-0.72111 -10.30826,-4.3431 -18.24857,-8.04885 -15.81968,-7.38307 -24.0651,-10.3162 -32.08834,-11.41473 -4.33041,-0.59292 -26.99161,-1.92401 -33.67271,-1.9779 -2.66184,-0.0215 -2.28971,-1.70197 1.37633,-6.21537 6.1402,-7.55942 17.44172,-16.01404 28.35571,-21.21278 11.87766,-5.65778 24.60629,-8.30696 35.57786,-7.40472 5.10927,0.42015 5.63455,0.60002 7.16908,2.45487 4.30156,5.19949 11.07248,11.79167 14.33838,13.95988 1.98596,1.31847 6.2386,3.53029 9.4503,4.91514 6.81309,2.93775 23.01482,8.5301 26.65514,9.20057 3.58845,0.66091 8.14018,5.99869 7.20143,8.44505 -0.64688,1.68574 -23.38229,16.17419 -27.8595,17.75384 -3.89985,1.37594 -13.63787,1.13323 -18.25511,-0.455 z"
         id="path13" />
      <path
         style="display:inline;fill:#6193b8;fill-opacity:1;stroke-width:0.651735"
         d="m 573.38246,846.16142 c -18.47557,-1.22603 -37.87674,-8.30063 -60.76062,-22.15626 -12.23787,-7.40973 -16.55021,-10.94027 -18.68003,-15.29347 -1.70769,-3.4904 -1.84791,-4.39904 -2.09437,-13.57216 -0.30238,-11.25422 0.39829,-15.14198 4.16692,-23.12071 4.5524,-9.63807 14.01276,-18.9613 20.33683,-20.04203 4.51913,-0.77228 15.08701,-0.53787 17.91436,0.39737 3.61929,1.19719 4.39255,2.27471 4.39817,6.12875 0.012,8.21921 2.74443,18.26168 6.26056,23.00922 2.7534,3.71771 5.34222,5.84184 6.14339,5.04067 0.31714,-0.31714 -0.12591,-3.98398 -1.01288,-8.38301 -2.60453,-12.91732 -1.8963,-23.13504 1.60357,-23.13504 0.73417,0 2.4355,0.98938 3.78073,2.19862 6.28761,5.65198 17.81176,11.25083 24.59968,11.95141 7.02534,0.72508 6.13654,-2.12021 -5.23445,-16.75697 -8.00453,-10.30345 -12.28375,-18.23629 -12.27863,-22.76219 0.002,-2.00969 1.55186,-7.44188 4.75464,-16.66777 7.65943,-22.06364 14.62148,-44.04314 18.2698,-57.67853 8.87001,-33.15121 13.85602,-44.76016 22.69325,-52.8369 7.06254,-6.45476 13.7877,-8.73841 25.5687,-8.68233 12.92347,0.0615 23.64153,3.39633 40.31621,12.54396 10.68527,5.86187 18.84995,9.89749 24.5314,12.12533 2.50918,0.9839 4.80381,2.01541 5.09919,2.29223 0.29538,0.27682 -3.81055,3.68315 -9.12429,7.56963 -17.14391,12.5391 -24.31153,18.56062 -34.54343,29.02 -15.9702,16.32522 -25.46345,31.7496 -32.39181,52.62935 -5.59083,16.84888 -6.53477,22.17127 -6.54568,36.90747 -0.008,10.68813 0.19109,13.18048 1.45389,18.20983 1.4698,5.85376 4.94672,14.63362 8.9022,22.47967 l 2.12631,4.21773 -6.52971,10.78486 c -16.54037,27.31905 -27.413,40.40427 -35.65704,42.91328 -3.0982,0.94291 -10.05051,1.19996 -18.06686,0.66799 z"
         id="path14" />
      <path
         style="fill:#6193b8;fill-opacity:1;stroke-width:0.651735"
         d="m 699.41262,814.6444 c -21.34423,-4.01919 -41.19789,-17.63403 -51.42601,-35.26589 -10.03624,-17.30107 -12.33297,-41.36536 -6.02447,-63.12198 5.99548,-20.67709 15.25792,-36.06549 31.60576,-52.50908 16.7523,-16.85042 31.98416,-27.9415 70.26496,-51.1634 20.75952,-12.59316 23.12177,-14.51076 31.2539,-25.37101 8.61809,-11.50923 33.16377,-48.29761 46.74595,-70.06149 5.70436,-9.14058 21.24947,-33.77615 34.5447,-54.74572 13.29523,-20.96957 24.89355,-39.29961 25.77405,-40.73343 1.46628,-2.38771 1.60091,-3.2646 1.60091,-10.42775 v -7.82082 l 2.50443,-4.53158 c 1.37744,-2.49237 5.36824,-8.65127 8.86844,-13.68643 7.96509,-11.4581 9.42985,-14.00473 11.41909,-19.85334 2.90202,-8.53228 8.85888,-17.00024 11.95898,-17.00024 2.95614,0 17.53129,8.56287 23.02826,13.52906 2.85748,2.58155 3.28651,5.22106 1.43447,8.82522 -3.79249,7.38035 -32.80635,46.7222 -39.13315,53.06326 -6.37644,6.39081 -9.45469,10.83663 -19.12131,27.61626 -18.81339,32.65691 -72.3677,134.01608 -80.83522,152.99221 -6.50145,14.57006 -7.299,21.35692 -5.56633,47.36714 2.69583,40.46852 0.0132,75.08718 -7.57467,97.74862 -9.605,28.68578 -25.67319,49.32414 -46.45424,59.66691 -9.76224,4.85867 -14.69598,5.94043 -28.35046,6.21603 -8.17552,0.165 -12.8532,-0.0424 -16.51804,-0.73255 z m 30.70715,-33.89136 c 1.04557,-1.26846 2.23076,-3.3806 2.63374,-4.69364 0.71335,-2.3243 0.6599,-2.45702 -2.02416,-5.02572 -1.51628,-1.45111 -4.95304,-3.92847 -7.63725,-5.50526 -2.6842,-1.57679 -5.00625,-2.97355 -5.16011,-3.10392 -0.47022,-0.39844 1.42427,-3.93646 9.72671,-18.16503 10.07955,-17.27414 11.21003,-18.68768 16.3276,-20.41591 8.10971,-2.73869 16.37464,-10.41825 20.38637,-18.94249 6.21319,-13.20196 -0.43938,-32.86433 -13.09546,-38.705 -2.68959,-1.24121 -4.21509,-1.42417 -11.8841,-1.4253 -8.49248,-10e-4 -8.94572,0.0689 -13.03469,2.01738 -6.10039,2.90696 -10.58635,7.22525 -13.35866,12.85938 -6.41846,13.04409 -5.35421,26.80262 2.85261,36.87838 l 2.88643,3.54377 -1.6292,2.98144 c -0.89606,1.63978 -4.48421,8.26944 -7.97365,14.73255 -3.48946,6.46312 -6.87747,12.45776 -7.52893,13.32142 l -1.18447,1.57029 -7.72465,-4.60314 c -10.29551,-6.13511 -10.13228,-6.09897 -13.28925,-2.942 -2.23123,2.23123 -2.58208,2.97443 -2.58208,5.46962 0,4.25832 1.54425,5.50666 20.20378,16.33232 19.41899,11.26628 28.32887,16.08713 29.76942,16.1073 0.84778,0.0119 2.18419,-0.9085 3.32,-2.28644 z m 173.866,-369.47877 c 1.07067,-1.07067 1.86581,-3.73863 1.59971,-5.19657 -0.92169,-5.04982 -6.38349,-5.65204 -8.6405,-3.97556 -1.8862,1.40105 -2.49715,4.09728 -1.85225,6.24978 1.3527,4.5149 5.8294,5.98599 8.89304,2.92235 z m 10.49887,-19.21083 c 2.9903,-1.82337 3.32517,-4.53812 1.26195,-7.89319 -1.58029,-2.56976 -5.77361,-2.65883 -7.01345,-1.3643 -2.63623,2.7525 -2.51684,6.0332 0.0609,8.61092 2.24052,2.24052 2.94523,2.32059 5.69062,0.64657 z"
         id="path15"
         sodipodi:nodetypes="cssssssssscssssssssssssscssssssssscssscssscsssssssssssssssss" />
      <path
         style="fill:#6193b8;fill-opacity:1;stroke-width:0.651735"
         d="m 925.48771,423.54061 c -1.26982,-2.31016 -2.73548,-4.85154 -3.25701,-5.6475 -1.12168,-1.7119 0.74134,-3.9014 2.85899,-4.30922 2.95657,1.08744 5.72714,3.76667 8.17473,5.78558 1.16794,1.29055 1.16679,1.39229 -0.0411,3.64842 -1.40066,2.61615 -3.14053,4.38747 -4.50649,4.58795 -0.52888,0.0776 -1.90231,-1.65144 -3.2291,-4.06523 z"
         id="path16"
         sodipodi:nodetypes="ssssssss" />
      <path
         style="fill:#6193b8;fill-opacity:1;stroke-width:0.651735"
         d="m 935.56528,399.22602 c -0.6427,-2.05658 3.98155,-7.03478 6.3313,-6.289 0.66595,0.21137 2.34889,1.9087 3.73987,3.77185 3.29848,4.41819 3.33146,6.50516 0.14891,9.42175 -4.74849,6.03717 -9.3583,-4.14698 -10.22008,-6.9046 z"
         id="path17"
         sodipodi:nodetypes="sssss" />
      <path
         style="fill:#6193b8;fill-opacity:1;stroke-width:0.651735"
         d="m 708.29755,757.44527 -4.04856,-2.08466 8.61071,-14.75304 c 11.64012,-19.94344 9.75078,-17.83053 14.71075,-16.45153 2.27669,0.63298 4.2886,1.53956 4.4709,2.01463 0.50701,1.32124 -17.54637,32.75548 -19.05576,33.17958 -0.35171,0.0988 -2.46133,-0.75843 -4.68804,-1.90498 z"
         id="path18" />
    </g>
    <g
       id="g10"
       style="display:inline">
      <path
         style="fill:#306494;fill-opacity:1;stroke-width:0.651735"
         d="m 567.98686,845.93096 c -14.64028,-2.17558 -29.818,-7.17455 -41.38516,-13.6307 -15.81836,-8.82894 -29.65628,-17.80165 -31.45746,-20.39747 -2.14698,-3.09418 -3.57345,-8.72198 -3.91769,-15.4563 l -0.33179,-6.49077 1.88597,1.23902 c 5.22852,3.43497 12.81204,7.6146 23.72829,13.07777 17.8248,8.92066 26.9363,12.49351 39.74662,15.58567 11.42435,2.75762 17.5962,2.12597 24.68555,-2.52643 13.13779,-8.62171 22.58903,-24.67394 32.61069,-55.38684 2.1425,-6.56602 4.62666,-14.69288 5.52036,-18.05968 l 1.62491,-6.12146 0.0518,8.47256 c 0.0913,14.93454 2.07471,23.18902 9.04323,37.63621 1.85249,3.8406 3.36816,7.41801 3.36816,7.9498 0,1.12782 -5.62691,11.04447 -11.29923,19.91333 -12.1214,18.95219 -21.5025,30.03574 -28.13072,33.23578 -2.83547,1.36894 -4.3167,1.59315 -11.40536,1.72642 -4.53018,0.0852 -10.89523,-0.25528 -14.33817,-0.76691 z"
         id="path5" />
      <path
         style="fill:#306494;fill-opacity:1;stroke-width:0.651735"
         d="m 672.94936,643.91397 c 0.007,-0.71691 0.43813,-3.06316 0.95744,-5.21388 0.51931,-2.15073 0.94879,-7.07243 0.95439,-10.93712 0.0154,-10.66581 -2.56531,-17.18223 -8.91906,-22.52067 -1.72032,-1.44542 -4.0077,-3.39698 -5.08306,-4.33681 -1.9027,-1.66288 -1.91145,-1.69695 -0.32587,-1.26839 2.18472,0.59049 8.10079,3.37143 11.81323,5.55299 12.20716,7.17334 28.32048,14.92587 31.03833,14.93332 0.44807,10e-4 0.81467,0.24439 0.81467,0.54036 0,0.85275 -2.35678,2.74799 -11.07949,8.90976 -9.14494,6.46004 -18.98064,13.92775 -19.705,14.96093 -0.27108,0.38666 -0.47307,0.11745 -0.46558,-0.62049 z"
         id="path6" />
      <path
         style="fill:#306494;fill-opacity:1;stroke-width:0.651735"
         d="m 708.43571,600.69816 c -4.30145,-1.74979 -12.51331,-5.49977 -18.24857,-8.33328 l -10.42776,-5.15184 8.14668,-0.39495 c 11.94036,-0.57886 19.69793,-2.97439 26.9275,-8.31519 3.49423,-2.58134 7.35177,-6.80399 8.84359,-9.68062 l 0.74971,-1.44565 5.36499,1.98791 c 8.20148,3.03892 14.31319,4.95366 21.33249,6.68326 3.31265,0.81626 3.745,1.14962 5.69998,4.39491 1.1635,1.93141 2.11666,3.69078 2.11814,3.90971 10e-4,0.21892 -6.42715,4.53825 -14.28585,9.5985 l -14.28854,9.20046 -7.05577,0.36412 -7.05577,0.36412 z"
         id="path7" />
      <path
         style="fill:#306494;fill-opacity:1;stroke-width:0.651735"
         d="m 744.34952,554.91212 c -9.72109,-2.00198 -23.14646,-6.38818 -21.3678,-6.98107 0.9764,-0.32547 1.05145,-12.82288 0.1069,-17.80343 -0.81936,-4.32049 -2.16605,-6.95965 -7.7853,-15.25714 -8.5242,-12.58701 -9.14868,-14.78258 -9.14868,-32.16499 0,-11.7483 -0.0636,-12.35054 -1.63784,-15.50963 -0.90081,-1.80769 -3.05239,-4.62602 -4.78129,-6.26294 -3.61861,-3.42609 -12.82043,-9.60658 -14.30276,-9.60658 -0.55143,0 -0.83884,-0.16377 -0.63868,-0.36393 0.20016,-0.20016 3.54845,0.21483 7.44064,0.9222 3.89219,0.70737 11.036,1.9071 15.87513,2.66608 4.83913,0.75897 10.55811,1.65714 12.70883,1.99592 2.15072,0.33878 8.26229,1.19479 13.58124,1.90224 5.31896,0.70746 10.0658,1.61408 10.54853,2.01471 0.48273,0.40063 1.81251,2.98118 2.95507,5.73455 5.16437,12.44525 7.36358,15.21809 19.52922,24.62297 12.44516,9.62096 15.18084,13.84937 16.71774,25.83975 0.94808,7.39664 0.77,14.11883 -0.53528,20.2057 -0.65404,3.04999 -0.70139,3.09574 -3.20361,3.09574 -5.08263,0 -7.4336,-1.57566 -10.72324,-7.1869 -4.90938,-8.37407 -9.8019,-11.73426 -20.93535,-14.37845 -7.69534,-1.82764 -10.47985,-3.25589 -15.21596,-7.80467 -4.00766,-3.84914 -4.84732,-4.29484 -6.32317,-3.35641 -2.07564,1.3198 -2.24734,6.77518 -0.32566,10.34702 1.14231,2.1232 5.24088,5.39957 11.14043,8.90557 5.65862,3.36281 6.79314,4.80371 7.52998,9.56343 0.85343,5.51287 3.21048,11.71883 5.70022,15.00835 1.36851,1.80811 2.55797,3.59955 2.64325,3.98098 0.26213,1.17235 -3.4786,1.12181 -9.55256,-0.12907 z"
         id="path8" />
      <path
         style="fill:#306494;fill-opacity:1;stroke-width:0.651735"
         d="m 731.24643,394.93712 c -0.35846,-0.13042 -5.7363,-0.55073 -11.95077,-0.93401 -11.19351,-0.69038 -22.07827,-2.03306 -25.84985,-3.18869 -1.07536,-0.3295 -3.21121,-0.97669 -4.74634,-1.43818 -1.53512,-0.46151 -2.54678,-1.00897 -2.24813,-1.21657 0.29864,-0.20761 2.25009,-4.63004 4.33655,-9.82763 3.90871,-9.73703 11.83131,-28.61106 14.0365,-33.4392 0.68632,-1.50264 3.19863,-7.13129 5.58293,-12.5081 6.1251,-13.81267 7.83584,-16.80343 11.70464,-20.46238 5.56586,-5.26396 5.67299,-5.27173 36.08612,-2.61873 9.95829,0.86868 23.67132,0.58825 24.0299,-0.49142 0.1612,-0.48536 1.83611,0.1364 4.61553,1.71338 5.36515,3.04407 5.6215,4.28924 1.32232,6.42282 -4.02033,1.9952 -12.74602,2.43045 -30.52414,1.52261 -11.07497,-0.56555 -13.51408,-0.53059 -14.25791,0.20433 -1.25685,1.24179 -4.32516,14.48053 -6.04737,26.09235 -1.22039,8.22834 -1.44782,12.51026 -1.43659,27.04699 0.007,9.49904 0.22774,18.66406 0.48978,20.36672 l 0.47644,3.09574 -2.48394,-0.0515 c -1.36617,-0.0283 -2.77722,-0.15815 -3.13567,-0.28857 z"
         id="path9" />
      <path
         style="display:inline;fill:#306494;fill-opacity:1;stroke-width:0.651735"
         d="m 775.89026,446.31986 c -8.14582,-0.60163 -21.52577,-2.21699 -22.89172,-2.76372 -1.0577,-0.42335 -1.20084,-0.63282 -0.45172,-0.66104 1.64881,-0.0621 2.02009,-2.24884 0.85647,-5.04442 -2.69999,-6.48673 -18.89395,-18.90858 -33.02351,-25.33122 -3.10902,-1.41322 -5.59049,-2.63176 -5.51438,-2.70787 0.0761,-0.0761 3.64634,0.2684 7.93384,0.76557 4.2875,0.49718 10.72826,1.11251 14.3128,1.36741 7.16939,0.5098 8.12464,0.90574 23.78832,9.85983 11.65907,6.66487 35.69102,19.09418 36.9184,19.09418 0.92762,0 4.79263,3.37165 4.79263,4.18086 0,0.52411 -1.17206,1.01649 -3.02377,1.2703 -2.98614,0.4093 -18.00751,0.39036 -23.69736,-0.0299 z"
         id="path10" />
      <path
         style="fill:#306494;fill-opacity:1;stroke-width:0.651735"
         d="m 441.33794,916.66497 -8.35907,-0.32586 2.1139,-2.93281 c 3.40659,-4.72627 13.68318,-14.54855 18.91551,-18.07929 12.96409,-8.74808 27.79157,-14.32815 46.19817,-17.3859 11.97349,-1.98906 17.40447,-2.45176 31.935,-2.72077 12.92232,-0.23923 16.51785,-0.0583 30.27198,1.52334 l 15.60795,1.79481 3.61823,6.07636 c 3.56041,5.97926 3.65266,6.07094 5.77283,5.73773 2.77248,-0.43573 13.02895,-5.57323 27.85461,-13.95247 l 11.76064,-6.64693 8.30078,4.20373 c 18.00154,9.11645 35.04645,12.67492 60.88721,12.71145 6.54179,0.009 11.89416,0.19733 11.89416,0.41797 0,0.58791 -5.26371,8.48935 -12.1767,18.27863 -3.73191,5.28465 -6.94071,9.12373 -8.35792,9.99962 l -2.30039,1.42172 -117.78892,0.10227 c -64.7839,0.0563 -121.55049,-0.0444 -126.14797,-0.2236 z"
         id="path19" />
      <path
         style="fill:#306494;fill-opacity:1;stroke-width:0.651735"
         d="m 697.35622,860.55787 c -14.07421,-1.10937 -35.45551,-5.40472 -45.4585,-9.13229 -3.49922,-1.30397 -3.74748,-1.53578 -3.74748,-3.49916 0,-1.15648 0.59479,-4.86005 1.32175,-8.23016 0.72696,-3.37011 1.79518,-8.4004 2.37383,-11.17842 0.57864,-2.77802 1.30895,-5.05094 1.6229,-5.05094 0.31395,0 3.42497,1.42636 6.91339,3.16969 16.36868,8.18024 32.47217,13.1772 49.81896,15.45897 8.51093,1.11951 8.9641,1.25421 9.56011,2.84157 0.96936,2.5817 1.31934,4.60672 1.77405,10.26488 0.41545,5.1697 0.40168,5.23493 -1.16843,5.53508 -2.69342,0.51488 -15.4669,0.41539 -23.01058,-0.17922 z"
         id="path20" />
      <path
         style="fill:#306494;fill-opacity:1;stroke-width:0.651735"
         d="m 791.1605,914.39739 c 0.23397,-1.24716 0.69801,-4.54657 1.03122,-7.33201 0.3332,-2.78544 1.20945,-9.46365 1.94722,-14.84046 0.73777,-5.37681 1.78354,-13.14875 2.32392,-17.27097 0.9536,-7.27443 3.38334,-24.2223 5.18571,-36.17128 0.48662,-3.22609 1.34216,-8.94506 1.90121,-12.70883 0.55905,-3.76377 1.45119,-9.62938 1.98254,-13.0347 0.53135,-3.40531 0.97135,-6.42875 0.97778,-6.71874 0.006,-0.29 0.26261,-0.37219 0.56928,-0.18266 0.30667,0.18954 0.4189,-0.38091 0.24939,-1.26765 -0.16952,-0.88674 0.15872,-4.32392 0.72941,-7.63816 0.57069,-3.31425 1.64162,-9.83855 2.37986,-14.49846 0.73823,-4.6599 1.76549,-11.11207 2.28279,-14.33816 0.51731,-3.22609 1.66893,-10.41146 2.55916,-15.9675 3.32637,-20.76041 9.67578,-32.81024 20.33624,-38.59384 6.87859,-3.73183 7.37588,-3.76892 50.52969,-3.76892 38.05126,0 39.73077,0.051 43.09221,1.30868 3.75217,1.40386 8.93409,5.38498 8.93409,6.86379 0,0.75505 -6.12591,0.93691 -37.63768,1.11739 -41.4623,0.23747 -38.67445,-0.0275 -47.1423,4.48048 -7.19917,3.83257 -12.89267,10.16632 -15.61094,17.36644 -1.20847,3.20098 -3.67113,15.82508 -5.81335,29.80042 -1.53998,10.04654 -2.41474,15.27295 -7.60493,45.43715 -0.59933,3.48318 -1.31207,6.19562 -1.58386,6.02765 -0.27179,-0.16798 -0.35279,0.23523 -0.17999,0.89602 0.28692,1.09719 -1.40843,12.13097 -4.02154,26.17322 -0.56699,3.04686 -1.28346,7.00615 -1.59215,8.79842 -1.849,10.73531 -3.53196,19.96492 -7.57603,41.54809 l -3.14449,16.78217 h -7.76493 -7.76493 z"
         id="path21" />
      <path
         style="fill:#306494;fill-opacity:1;stroke-width:0.651735"
         d="m 847.92691,696.21568 c -0.14574,-0.44807 -1.00366,-3.74747 -1.90647,-7.33201 -5.08137,-20.17516 -13.91394,-43.38787 -23.81722,-62.59358 l -5.05487,-9.80306 1.46857,-6.49031 c 1.72391,-7.61883 2.98412,-11.49549 5.56738,-17.12647 1.03924,-2.26535 1.88954,-4.23459 1.88954,-4.3761 0,-0.72052 6.04071,-10.07953 6.50576,-10.07953 0.29839,0 1.93666,1.53972 3.6406,3.42161 11.61198,12.82461 18.30398,26.14726 27.29397,54.33768 5.14451,16.13191 5.12662,16.06895 8.40584,29.57317 6.30612,25.96938 6.94435,28.72493 6.94435,29.98255 0,1.26295 -0.44531,1.30072 -15.33623,1.30072 -11.69315,0 -15.39917,-0.19352 -15.60122,-0.81467 z"
         id="path22" />
    </g>
    <g
       id="g30"
       style="display:inline">
      <path
         style="display:inline;fill:#306494;fill-opacity:1;stroke-width:0.325867"
         d="m 801.53099,521.6029 c -1.27378,-18.3215 -4.58526,-24.62701 -19.44925,-37.03398 -6.42366,-5.36186 -10.2594,-9.27285 -11.95365,-12.18823 -1.18703,-2.04256 -4.08352,-9.36207 -3.81216,-9.63345 0.0773,-0.0773 2.40976,-0.30012 5.18329,-0.49519 2.77353,-0.19506 7.06852,-0.49988 9.54444,-0.67731 15.85822,-1.1366 30.33585,-4.61416 35.08838,-8.4283 5.22562,-4.19385 7.06217,-8.39403 4.94222,-11.30283 -2.55641,-3.50765 -6.1115,-5.86657 -22.53622,-14.95354 -21.07339,-11.65884 -45.41955,-25.74679 -47.03297,-27.21571 -1.18691,-1.08061 -1.93316,-24.3817 -1.21578,-37.96156 0.47882,-9.06398 1.0761,-14.55701 2.30555,-21.20355 0.53543,-2.89456 0.9735,-5.35681 0.9735,-5.47167 0,-0.11486 1.94299,-0.21134 4.31775,-0.2144 21.34674,-0.0275 36.4717,-2.36555 45.57895,-7.04565 8.15926,-4.19294 9.58721,-10.4741 3.66192,-16.10782 -4.9165,-4.67457 -17.04836,-12.4513 -35.10095,-22.50033 -24.08622,-13.40766 -35.99647,-17.94987 -47.134,-17.9755 -12.0661,-0.0278 -32.54326,4.43038 -41.01601,8.92974 -1.67886,0.89154 -3.14526,1.52835 -3.25868,1.41514 -0.37958,-0.37891 -0.41824,-23.02271 -0.0542,-31.7614 0.94771,-22.75086 3.98906,-37.97275 10.72783,-53.69249 7.4951,-17.48409 16.28648,-30.69213 28.69587,-43.11229 7.79908,-7.80583 13.27889,-12.32056 20.84003,-17.16977 4.39554,-2.819 13.44948,-7.34869 18.07272,-9.04178 14.57351,-5.33703 31.24297,-6.74093 48.11105,-4.05191 24.02666,3.8302 43.5233,15.63799 62.92013,38.10644 11.00225,12.74454 18.95568,27.25557 25.53708,46.59242 2.44703,7.18965 3.4905,11.1062 4.21251,15.81118 1.29275,8.42431 1.34373,11.1007 1.32217,69.40976 -0.0115,31.00628 -0.13789,60.1474 -0.28096,64.75804 -0.23949,7.71835 -0.3037,8.35966 -0.80987,8.08876 -0.30237,-0.16182 -1.98738,-1.6293 -3.74447,-3.26107 -4.90277,-4.55307 -6.58338,-5.12398 -9.46498,-3.21529 -2.53884,1.68166 -4.07601,4.19787 -3.63585,5.95158 0.27788,1.10716 4.80523,5.80465 8.68121,9.00744 1.78597,1.47578 3.24722,2.73368 3.24722,2.79534 0,0.42835 -7.35132,10.53968 -7.66274,10.53968 -0.58825,0 -2.60484,-1.4447 -5.31072,-3.80462 -4.10413,-3.57941 -5.21923,-3.76337 -7.71059,-1.27201 -1.67645,1.67645 -2.66998,4.30416 -2.32423,6.14715 0.36452,1.94308 2.76268,4.27022 6.06325,5.88368 l 2.85602,1.39614 -0.9814,1.28311 c -5.33734,6.97815 -7.45095,12.30124 -8.04505,20.26127 -0.2691,3.60554 -0.35723,3.93985 -1.7784,6.74585 -2.87523,5.67693 -12.26019,20.16204 -41.28868,63.72658 -16.31594,24.48617 -25.39306,37.85452 -26.50396,39.03377 -0.31015,0.32925 -0.47593,-0.75663 -0.7773,-5.09142 z"
         id="path31" />
      <path
         style="display:inline;fill:#306494;fill-opacity:1;stroke-width:0.325867"
         d="m 847.14873,567.49852 c -3.99187,-4.17936 -7.38838,-7.84255 -7.5478,-8.14042 -0.33594,-0.6277 2.27737,-5.51003 10.81783,-20.2105 7.04647,-12.12888 13.31515,-23.35097 20.29763,-36.33645 10.42716,-19.39164 25.31373,-45.5598 29.34703,-51.5873 l 0.72275,-1.08009 0.22904,7.59744 c 0.3551,11.77848 -0.0127,111.51286 -0.41969,113.79162 -0.18825,1.05414 -0.47548,2.04983 -0.63828,2.21263 -0.59088,0.59088 -8.10514,0.90912 -26.64144,1.12831 l -18.90911,0.2236 z"
         id="path32" />
      <path
         style="fill:#306494;fill-opacity:1;stroke-width:0.651735"
         d="m 851.02896,571.74228 c -1.35865,-1.51906 -4.65941,-5.05075 -7.33502,-7.84821 -4.03593,-4.21971 -4.74651,-5.27591 -4.17073,-6.19942 1.0549,-1.69197 13.65623,-23.14181 17.5007,-29.78948 3.94438,-6.82043 6.29957,-11.15945 12.38149,-22.81071 9.75061,-18.67944 13.05962,-24.55306 25.56255,-45.37449 2.50139,-4.16563 4.73131,-8.0516 4.95536,-8.63549 0.22406,-0.58389 0.63655,-1.06148 0.91664,-1.06132 0.28009,1.6e-4 0.49763,27.73307 0.48342,61.62868 -0.0224,53.30839 -0.15433,61.70966 -0.97761,62.2304 -0.53479,0.33826 -11.00517,0.60638 -23.89914,0.61199 l -22.94738,0.01 z"
         id="path24" />
      <path
         style="fill:#6193b8;fill-opacity:1;stroke-width:0.651735"
         d="m 751.31465,400.08369 c -1.02915,-0.71814 -0.97476,-5.23017 -1.14054,-6.68028 -0.18722,-1.63769 -0.51202,-33.94495 0.29766,-38.45236 l 3.58537,-19.95937 c 3.83904,0.14523 18.94881,-0.15377 25.81052,-0.7338 l 4.82581,-0.40793 0.0483,42.44482 c 0.0265,23.34466 0.0211,42.44483 -0.012,42.44483 -0.0332,0 -16.52207,-7.81714 -19.43976,-9.61109 -2.954,-1.81627 -12.41527,-7.9562 -13.97536,-9.04482 z"
         id="path25"
         sodipodi:nodetypes="ssscscssss" />
      <path
         style="fill:#6193b8;fill-opacity:1;stroke-width:0.651735"
         d="m 813.85381,491.87791 -8.63549,-0.18185 V 475.4216 c 0,-8.95094 -0.0185,-16.47592 -0.041,-16.72217 -0.0226,-0.24625 1.81044,-1.07344 4.07335,-1.83819 8.42357,-2.84678 12.9128,-7.07184 12.9128,-12.15298 0,-3.80186 -2.05587,-5.93474 -10.57595,-10.9721 l -6.38507,-3.77507 -0.008,-51.02538 -0.008,-51.02538 2.22002,-2.32494 c 1.22101,-1.27871 2.54797,-2.96554 2.94881,-3.7485 1.04512,-2.04144 0.90067,-6.45814 -0.24881,-7.60762 -0.53769,-0.53768 -0.97845,-1.21851 -0.97948,-1.51295 -10e-4,-0.29445 -0.88003,-1.12192 -1.95333,-1.83883 l -1.95146,-1.30347 -0.002,-11.85569 c -10e-4,-6.52064 0.21809,-11.98608 0.48693,-12.14543 0.46431,-0.27522 16.86533,0.69905 36.00834,2.139 4.83913,0.364 13.05099,0.82626 18.24858,1.02723 5.19758,0.20097 10.69659,0.51648 12.22002,0.70113 l 2.76988,0.33572 v 45.26128 45.26127 l -1.95521,2.69909 c -2.48661,3.43266 -2.47596,5.34168 0.0438,7.86148 1.97479,1.9748 1.99579,2.06707 1.73175,7.60775 -0.1643,3.44769 -0.78825,7.0288 -1.61941,9.29439 -0.77308,2.10731 -1.5419,6.29384 -1.79528,9.77602 l -0.44316,6.09035 -6.03253,9.12429 c -31.69415,47.93782 -38.41836,58.07639 -38.82656,58.54158 -0.63614,0.72496 -2.1309,0.79655 -12.20358,0.58443 z"
         id="path26" />
      <path
         style="fill:#6193b8;fill-opacity:1;stroke-width:0.651735"
         d="m 854.75017,267.20308 c -6.98986,-0.44974 -20.99401,-1.34412 -31.12034,-1.9875 l -18.41151,-1.16979 v -49.49947 -49.49948 l 3.30821,0.43885 c 8.33874,1.10617 21.01397,6.62397 28.83797,12.55378 22.81244,17.28954 35.49085,45.05735 37.36696,81.83977 l 0.42383,8.30962 -3.84815,-0.084 c -2.11648,-0.0462 -9.56712,-0.45201 -16.55697,-0.90175 z"
         id="path27" />
      <path
         style="fill:#6193b8;fill-opacity:1;stroke-width:0.651735"
         d="m 776.86786,262.2868 c -3.22609,-0.27634 -17.15692,-1.27027 -30.9574,-2.20873 -13.80048,-0.93846 -25.77457,-1.99448 -26.60908,-2.34671 -1.67802,-0.70826 -1.67667,-0.15602 -0.0382,-15.61189 2.15938,-20.36956 11.49126,-39.34462 27.04982,-55.00194 5.97702,-6.01496 12.28493,-11.21127 16.86842,-13.89582 5.75374,-3.36996 19.4985,-7.99531 20.57124,-6.92257 0.39884,0.39883 0.97451,86.65723 0.63977,95.86118 -0.0163,0.44806 -0.39623,0.77287 -0.8443,0.72179 -0.44806,-0.0511 -3.45419,-0.31897 -6.68028,-0.59531 z"
         id="path28" />
      <path
         style="fill:#6193b8;fill-opacity:1;stroke-width:0.651735"
         d="m 780.77827,293.53172 c -1.07536,-0.70564 -5.25128,-3.05306 -9.27982,-5.21649 -4.02854,-2.16343 -7.44706,-4.13086 -7.59673,-4.37206 -0.32649,-0.52617 12.2704,-0.20532 16.87655,0.42986 l 3.25867,0.44937 0.19035,5.04379 c 0.21073,5.58383 -0.0704,5.88257 -3.44902,3.66553 z"
         id="path29" />
      <path
         style="fill:#6193b8;fill-opacity:1;stroke-width:0.651735"
         d="m 770.8929,473.39809 c -1.73178,-2.57462 -5.03633,-11.30733 -4.25224,-11.30144 7.12275,0.0535 16.7714,-0.53999 17.8068,0.0539 0.22579,0.12951 0.42224,5.51899 0.43656,11.97662 0.0208,9.3767 -0.14938,11.74114 -0.84501,11.74114 -4.69176,-3.2706 -9.63171,-7.85981 -13.14611,-12.4702 z"
         id="path30"
         sodipodi:nodetypes="ssssss" />
    </g>
    <g
       id="g33"
       style="display:inline">
      <path
         d="m 383.58959,491.04424 c -35.11767,-0.28086 -34.5,-0.16711 -34.5,-6.35341 0,-6.30927 -3.65869,-5.89066 51.48454,-5.89066 42.38241,0 50.45688,0.22449 51.45793,1.43068 1.76974,2.13241 1.59745,7.45797 -0.30275,9.35818 -1.85369,1.85368 -6.33943,1.94948 -68.13972,1.45521 z m -34.9788,-28.86573 c -2.36826,-2.36825 -3.00084,-6.4412 -1.42496,-9.17479 l 1.40376,-2.43504 49.43532,0.12847 c 44.32836,0.11519 49.62278,0.29812 51.25,1.77073 2.70593,2.44884 2.30814,6.79897 -0.84881,9.28223 -2.62259,2.06293 -3.39764,2.09396 -50.4803,2.02085 -41.35785,-0.0642 -48.02189,-0.27932 -49.33501,-1.59245 z m -2.86621,-30.20708 c -1.65977,-1.83402 -2.18385,-6.6295 -1.048,-9.58947 0.54232,-1.41328 5.89552,-1.58016 50.25,-1.56648 27.30365,0.008 50.23963,0.39357 50.96884,0.85588 1.89078,1.19875 2.73162,8.7522 1.18211,10.61924 -1.0861,1.30868 -7.80329,1.50957 -50.4754,1.50957 -46.41603,0 -49.31693,-0.10427 -50.87755,-1.82874 z"
         style="display:inline;fill:#265a8b;fill-opacity:1"
         id="path1-18" />
      <path
         style="display:inline;fill:#265a8b;fill-opacity:1"
         d="m 282.20687,868.67834 v -49.92805 l 5.25,-0.57453 c 2.8875,-0.31599 7.725,-0.23587 10.75,0.17805 l 5.5,0.75257 0.25934,49.75 0.25933,49.75 H 293.21621 282.20687 Z M 98.456865,916.9441 c -0.97831,-0.39476 -1.25,-12.22339 -1.25,-54.42105 0,-51.25426 0.0889,-53.91667 1.80011,-53.91667 0.99005,0 7.627555,0.4337 14.750005,0.96377 27.64249,2.05724 56.12881,4.1184 83.94989,6.0743 54.45609,3.82841 66.80151,4.86344 67.60612,5.66805 0.44262,0.44262 1.09279,7.66216 1.44483,16.04342 l 0.64008,15.23867 -2.84551,-0.44736 c -1.56504,-0.24605 -6.44552,-0.68472 -10.84552,-0.97484 -4.4,-0.29011 -27.575,-1.8734 -51.5,-3.51841 -23.925,-1.64502 -46.875,-3.2153 -51,-3.48951 -4.125,-0.27422 -11.6625,-0.79501 -16.75,-1.15732 -5.15021,-0.36677 -9.25101,-0.26915 -9.25227,0.22025 -0.006,2.20069 -2.00343,49.18795 -2.56711,60.37898 -0.34628,6.875 -0.83639,12.8375 -1.08913,13.25 -0.50389,0.82241 -21.07704,0.90057 -23.091495,0.0877 z M 257.70687,794.51325 c -9.35,-0.39927 -35.675,-1.885 -58.5,-3.30162 -22.825,-1.41662 -60.625,-3.70309 -84,-5.08104 -57.428225,-3.38538 -55.176585,-3.19671 -56.131905,-4.70339 -0.46061,-0.72645 -0.84436,-7.54626 -0.85279,-15.15514 l -0.01531,-13.83432 69.750005,0.52948 c 38.3625,0.29122 72.92214,0.55417 76.7992,0.58432 l 7.0492,0.0548 -0.34154,3.25 c -0.51922,4.94085 2.83079,9.44296 9.19429,12.35626 10.78906,4.9394 34.20999,6.0763 129.18075,6.27068 75.03174,0.15357 77.47372,0.28192 83.32373,4.37943 2.95411,2.06914 7.04437,7.76391 7.04437,9.80771 0,1.51828 -2.97974,1.73769 -31.75,2.33788 -17.4625,0.36429 -36.475,0.86175 -42.25,1.10548 -5.775,0.24372 -24.45,0.70952 -41.5,1.03512 -17.05,0.32559 -35.275,0.7041 -40.5,0.84112 -5.225,0.13702 -17.15,-0.0775 -26.5,-0.47681 z m 4.03754,-28.90687 -29.96246,-0.5 -1.4413,-2.56929 c -1.81736,-3.23966 -0.86207,-7.42042 2.1321,-9.33101 3.19205,-2.03686 143.57609,-2.80496 145.99389,-0.79879 2.05072,1.70158 5.74023,9.59581 5.74023,12.28203 v 2.10474 l -46.25,-0.34384 c -25.4375,-0.18911 -59.73311,-0.56884 -76.21246,-0.84384 z m -8.63028,-22.59192 c -0.41274,-4.04151 2.1814,-24.90533 3.20957,-25.81354 0.21074,-0.18615 18.15024,-0.50858 39.86555,-0.7165 l 39.48238,-0.37804 0.72565,5 c 0.39911,2.75 1.80201,8.7125 3.11757,13.25 1.51433,5.22313 1.98835,8.25257 1.29196,8.25702 -0.60497,0.004 -20.56244,0.29999 -44.34994,0.65807 -25.70689,0.38698 -43.28762,0.28273 -43.34274,-0.25701 z M 143.12044,697.65803 c -4.80903,-1.47109 -7.85263,-4.22772 -10.37855,-9.4 -2.30447,-4.71881 -2.68353,-7.50419 -4.51162,-33.15165 -1.09768,-15.4 -2.23015,-30.025 -2.5166,-32.5 -0.28646,-2.475 -1.41073,-16.875 -2.49837,-32 -1.08765,-15.125 -2.64223,-36.725 -3.45461,-48 -0.81239,-11.275 -1.95039,-28.375 -2.5289,-38 -0.95864,-15.94931 -2.06525,-32.4259 -6.54838,-97.5 -2.72352,-39.53273 -2.34818,-44.48639 3.89043,-51.34501 5.38078,-5.91554 -7.96871,-5.52892 181.11724,-5.24545 136.80573,0.2051 173.61493,0.52405 176,1.52505 4.60484,1.93262 10.33182,8.45777 12.49307,14.23423 1.32921,3.55263 2.58357,12.07795 3.97424,27.01111 3.19436,34.3013 6.94529,74.30064 7.52602,80.25626 0.29155,2.98991 1.19426,12.66491 2.00604,21.5 0.81177,8.8351 2.61006,28.18111 3.99619,42.99114 1.38612,14.81004 2.52023,27.45144 2.52023,28.09202 0,1.33734 -13.79122,7.02276 -14.73818,6.0758 -0.55049,-0.55049 -4.32468,-37.41965 -7.22663,-70.59515 -0.90291,-10.32229 -2.81945,-31.5621 -6.13587,-68 -3.85398,-42.34431 -5.77492,-58.16119 -7.35678,-60.57542 -0.90817,-1.38603 -3.03235,-3.35999 -4.72042,-4.38656 -2.96155,-1.80103 -8.79185,-1.86907 -166.20186,-1.93963 -161.68603,-0.0725 -163.16195,-0.0553 -166.43663,1.93613 -1.83558,1.11629 -3.98101,3.62963 -4.82733,5.65515 -1.60712,3.84638 -1.66715,2.0242 1.62469,49.31033 0.5169,7.425 1.20085,18 1.51991,23.5 0.31905,5.5 0.98934,15.4 1.48953,22 0.50018,6.6 1.16368,16.05 1.47444,21 1.77573,28.28561 3.58184,55.76691 4.00899,61 0.53297,6.52936 2.11597,28.95329 3.00027,42.5 4.78051,73.23324 4.43348,70.96006 11.57994,75.85207 l 3.44593,2.35887 42,-0.59838 c 23.1,-0.32911 66.525,-0.83369 96.5,-1.12129 29.975,-0.2876 60.72616,-0.76707 68.33592,-1.06548 l 13.83592,-0.54257 -0.79431,2.30839 c -0.89863,2.61153 -0.78571,20.94697 0.1471,23.88599 0.5896,1.85768 -0.19167,1.92624 -23.20724,2.03642 -13.09957,0.0627 -24.94239,0.23378 -26.31739,0.38014 -6.70364,0.71359 -179.84322,1.24369 -182.08643,0.55749 z"
         id="path1-5"
         sodipodi:nodetypes="ccssccccccssssssscssssscssssssssscsscsssssssssssscsssscssssscssssssssssssssssssssssssssssssssssssscssscsssss" />
      <path
         d="m 72.955777,316.46063 c -3.5914,-2.28453 -1.73682,-12.67826 2.67072,-14.9677 3.80055,-1.97414 274.858613,-0.82692 276.857303,1.17177 1.97927,1.97927 2.08704,12.36326 0.14109,13.59341 -1.78677,1.12952 -277.897493,1.32946 -279.669113,0.20252 z M 91.060884,290.1298 c -1.03123,-1.66856 -0.6816,-109.04663 0.35844,-110.08667 0.47717,-0.47717 6.90649,-0.74149 14.287376,-0.58738 l 13.41979,0.28021 v 55.5 55.5 l -13.67385,0.27772 c -9.573546,0.19445 -13.889126,-0.0706 -14.391756,-0.88388 z m 38.565606,-47.36306 v -48.53078 h 12.5096 12.50961 l -0.25961,48.25 -0.2596,48.25 -12.25,0.28078 -12.25,0.28078 z m 33.75,47.40502 c -1.63592,-0.9677 -1.75,-4.97198 -1.75,-61.42647 0,-47.11789 0.27375,-60.56048 1.2455,-61.16106 1.66973,-1.03194 24.95559,-1.46006 26.52885,-0.48773 0.971,0.60011 1.18506,14.13991 0.98341,62.20327 l -0.25776,61.43619 -12.5,0.23549 c -7.27367,0.13703 -13.23169,-0.19732 -14.25,-0.79969 z m 38.91667,0.39753 c -0.36667,-0.36666 -0.66667,-22.13656 -0.66667,-48.37755 0,-38.64784 0.25444,-47.92205 1.33944,-48.82252 1.43762,-1.19313 24.82438,-1.76808 26.62603,-0.6546 0.68962,0.42621 1.03453,16.75402 1.03453,48.97337 0,43.15179 -0.16959,48.39907 -1.58179,48.94098 -2.15422,0.82665 -25.91823,0.77364 -26.75154,-0.0597 z m 37.27512,-51.58333 c -0.032,-28.7375 -0.25532,-55.9088 -0.49624,-60.38067 -0.55796,-10.35672 -0.0317,-10.88479 10.64302,-10.6804 13.45762,0.25767 11.91143,-7.76074 11.91143,61.77147 0,54.08659 -0.16359,60.3884 -1.58179,60.93261 -0.86998,0.33385 -5.81998,0.60699 -11,0.60699 h -9.41821 z m 39.73101,51.5 c -0.24487,-0.4125 -0.74208,-3.675 -1.1049,-7.25 -0.36282,-3.575 -0.86468,-8.525 -1.11525,-11 -0.4923,-4.8627 -5.6388,-50.9796 -7.5715,-67.84691 -0.99912,-8.71972 -0.96506,-10.48653 0.21664,-11.23469 0.77122,-0.48828 6.18986,-0.89467 12.04143,-0.90309 14.52086,-0.0209 14.84433,0.26316 16.00057,14.05113 0.91068,10.85976 2.02549,20.20051 6.31757,52.93356 4.09078,31.1979 4.00409,30.09431 2.44192,31.08341 -1.69592,1.07379 -26.59748,1.22615 -27.22648,0.16659 z"
         style="display:inline;fill:#265a8b;fill-opacity:1"
         id="path1-8" />
    </g>
  </g>
</svg>
