<svg xmlns="http://www.w3.org/2000/svg" xmlns:svg="http://www.w3.org/2000/svg" version="1.1" width="1024" height="1024" viewBox="0 0 1024 1024">
    <defs>
        <linearGradient id="gradient" x1="0%" y1="0%" x2="100%" y2="100%">
            <stop stop-color="#0f0c29" offset="0%" />
            <stop stop-color="#302b63" offset="50%" />
            <stop stop-color="#24243e" offset="100%" />
        </linearGradient>
    </defs>
    <g>
        <path fill="url(#gradient)" d="m236.06 1008.9c-36.98 -16.79 -87.4 -48.35 -101.38 -63.45 -5 -5.4 -9.14 -11.63 -10.63 -16 -7.82 -22.96 4.13 -95.15 33.82 -204.29 21.47 -78.92 32.14 -107.15 52.22 -138.14 22.02 -34 47.9 -48.19 87.77 -48.19 33.38 0 50.25 6.38 111.37 42.1 20.28 11.85 45.57 25.93 56.2 31.29 26.12 13.17 27.58 11.28 4.86 -6.28 -6.65 -5.14 -25.65 -19.87 -42.2 -32.74 -71.54 -55.56 -92.38 -65.88 -129.35 -64.05 -22.1 1.09 -37.1 5.15 -58.46 15.85l-17.65 8.83 0.79 -9.16c4.28 -49.92 12.2 -65.93 42.2 -85.48 13.95 -9.1 14.23 -9.38 16.51 -17.66 6.4 -23.2 8.82 -30.37 13.55 -40.3 6.85 -14.37 17.57 -25.9 29.56 -31.78 12.58 -6.18 25.34 -9.57 57.77 -15.35 47.6 -8.5 82.39 -15.05 95.15 -17.97 8.72 -1.99 12.42 -2.32 12.42 -1.1 0 3.95 -12.9 21.04 -22.8 30.21 -5.85 5.4 -18.86 15.4 -28.92 22.2 -10.06 6.8 -21.17 14.67 -24.68 17.52 -9.52 7.7 -14.58 19.6 -18.4 43.23 -1.74 10.77 -4.55 23.79 -6.24 28.95 -5.61 17.1 -21.15 30.13 -40.75 34.12l-9.28 1.89 5.3 3.28c2.92 1.81 5.7 3.28 6.2 3.28 0.48 0 29.87 13.97 65.31 31.05 92.3 44.48 103.1 48.27 118.31 41.55 10.96 -4.85 19.55 -19.22 23.95 -40.08 0.89 -4.22 1.81 -7.89 2.04 -8.15 0.23 -0.26 4.58 1.62 9.65 4.2 11.04 5.57 20.93 14.15 23.56 20.43 1.85 4.42 0.37 7.63 -46.64 100.9 -26.7 52.98 -53.78 105.48 -60.18 116.66 -6.4 11.18 -13.05 23.12 -14.78 26.52 -3.1 6.12 -3.35 6.25 -19.9 10.8 -29.92 8.22 -53.97 12.48 -55.6 9.85 -0.45 -0.73 -2.26 -12.82 -4.03 -26.88 -7.3 -58.18 -22.46 -114.93 -36.68 -137.37 -7.7 -12.16 -8.4 -9.88 -7.46 24.85 1.2 44.9 -2.7 85.35 -10.71 111.06l-3.28 10.54 -16.5 1.05c-18.65 1.19 -37.7 6.1 -52.34 13.47 -27.9 14.06 -52.13 37.38 -60.82 58.5 -5.64 13.71 -4.65 14.94 4.96 6.15 18.64 -17.04 36.24 -28.63 56.31 -37.1 28.71 -12.12 55.5 -14.52 69.61 -6.25 7 4.1 9.48 7.52 7.7 10.62 -0.55 0.96 -4.53 6.5 -8.86 12.3 -23.37 31.41 -52.75 90.72 -72.17 145.68 -4.12 11.67 -6.4 16.17 -8.16 16.13 -1.34 -0.03 -9.55 -3.3 -18.25 -7.24zm60.31 5.13c-5.38 -6.48 27.73 -89.32 51.32 -128.4 10.1 -16.72 22.52 -29.67 30.68 -31.97 3.31 -0.93 17.2 -3.38 30.87 -5.45 13.67 -2.06 33.28 -5.8 43.58 -8.27 23.15 -5.6 23.54 -5.4 20.22 9.86 -2.94 13.54 -2.96 40.6 -0.04 54.43 2.19 10.33 10.26 32.57 13.04 35.92 3.38 4.07 4.42 9.68 2.2 11.9 -6.5 6.5 -128.15 49.93 -169.35 60.47 -16.62 4.25 -20.05 4.48 -22.52 1.51zm211.82 -91.6c-4.53 -3.44 -10.33 -27.45 -11.2 -46.35 -0.67 -14.54 -0.4 -17.78 1.57 -19.76 3.48 -3.48 42.7 -20.47 89.88 -38.95 47.19 -18.48 59.87 -23.8 84.7 -35.67 9.73 -4.65 18.14 -8 18.68 -7.46 1.96 1.96 -4.63 13.24 -11.48 19.64 -8.94 8.36 -20.16 16.6 -44.13 32.4 -15.8 10.42 -19.17 13.28 -19.17 16.29 0 3.08 0.53 3.5 3.4 2.65 8.44 -2.5 33.87 -17.35 55.3 -32.3 7.08 -4.94 11.56 -5.39 14.05 -1.41 4.2 6.72 -7.5 20.72 -39.2 46.84 -10.98 9.05 -19.96 17.17 -19.96 18.05 0 3.2 9.5 -0.37 19.36 -7.3 18.49 -13 20.21 -14.05 23.02 -14.05 3.75 0 3.55 1.24 -1.45 9.13 -8.8 13.88 -31.54 31.52 -51.33 39.82 -15.25 6.4 -27.67 9.17 -57.36 12.79 -24.62 3 -43 5.55 -49.07 6.8 -1.73 0.36 -4.24 -0.18 -5.58 -1.2zm273.7 -25.3c-1.63 -2.64 6.46 -9.94 25 -22.55 9.57 -6.5 18.6 -13.17 20.1 -14.8 4.11 -4.54 6.8 -13.54 6.86 -23.06 0.09 -11.97 2.72 -23 6.24 -26.18 2.55 -2.31 3.68 -2.44 7.92 -0.9 8.4 3.04 8.5 2.92 8.5 -11.86 0 -7.5 0.7 -14.96 1.56 -16.56 1.84 -3.43 7.04 -3.72 11.15 -0.61 4.72 3.57 5.36 2.72 5.4 -7.2 0.02 -5.18 0.66 -12.12 1.43 -15.44 1.59 -6.89 7.92 -13.18 12.57 -12.5 10.24 1.5 17.27 38.28 10.03 52.47 -8.73 17.1 -39.66 60.76 -48.63 68.63 -7.35 6.44 -25.73 17.74 -43.17 26.53 -11.4 5.74 -22.76 7.6 -24.95 4.05zm-69.39 -30.6c-4.25 -1.98 -8.18 -4.34 -8.74 -5.24 -0.93 -1.5 6.2 -21.26 21.95 -60.9 7.44 -18.72 8.02 -26.58 2.38 -32.22 -3.06 -3.06 -6.06 -4.28 -11.96 -4.88 -7.83 -0.79 -7.88 -0.83 -9.1 -6.98 -1.7 -8.6 -6.94 -13.17 -15.04 -13.07 -4.85 0.06 -12.48 3.03 -31.26 12.15 -27.78 13.5 -45.69 20.35 -109.49 41.92 -35.7 12.07 -44.5 14.55 -46.68 13.16 -5.57 -3.53 -3.12 -11.08 15.21 -46.84 9.66 -18.85 32.14 -63.75 49.95 -99.78 17.82 -36.03 36.26 -73.3 41 -82.82 7.43 -14.95 9.15 -17.38 12.58 -17.78 9.54 -1.11 61.4 14.43 102.86 30.82 29.32 11.6 48.95 21.04 72.96 35.1 20.4 11.95 29.12 15.1 41.78 15.1 2.85 0 5.07 0.77 5.07 1.75 0 0.96 -10.1 20.79 -22.42 44.05 -12.33 23.26 -30.23 57.2 -39.77 75.42 -56.5 107.86 -54.67 104.67 -60.15 104.65 -1.87 -0.01 -6.88 -1.63 -11.12 -3.6zm46.12 -12.84c0 -0.77 11.21 -23.3 24.91 -50.07 13.7 -26.77 40.2 -79.16 58.88 -116.43 23.4 -46.68 35.68 -69.56 39.46 -73.55 6.68 -7.03 33.1 -24.77 54.03 -36.3 19.85 -10.92 48.34 -23.77 50.18 -22.64 3.15 1.95 0.96 8.86 -8.86 28.05 -5.66 11.05 -23.33 45.65 -39.27 76.88 -15.94 31.23 -30.33 58.5 -31.99 60.6 -3.52 4.48 -5.73 4.72 -12.27 1.33 -7.18 -3.7 -16.73 -3.05 -23.48 1.62 -6.61 4.58 -10.95 11.76 -14.45 23.85 -1.87 6.5 -3.52 9.21 -6.54 10.78 -2.22 1.16 -5.84 4.03 -8.06 6.38 -3.88 4.11 -11.78 18.3 -11.78 21.15 0 0.76 -2 2.86 -4.45 4.67 -7 5.17 -12.03 15.18 -13.4 26.64 -1.39 11.55 -1.26 11.4 -20.54 22.73 -6.63 3.9 -15.3 9 -19.3 11.37 -7.22 4.27 -13.08 5.57 -13.08 2.9zm72.28 -230.6c-7.13 -0.9 -11.23 -3.02 -29.44 -15.18 -38.54 -25.74 -90.25 -49.64 -135.08 -62.43 -7.66 -2.19 -14.45 -4.28 -15.08 -4.64 -2 -1.17 24.6 -28.75 28.44 -29.49 1.99 -0.38 10.21 1.6 18.28 4.39 38.73 13.43 83.42 40.55 116.32 70.6 8.7 7.94 16.97 15.1 18.38 15.87 2.12 1.18 5.16 -1.8 17.7 -17.35 16.56 -20.54 30.14 -33.1 49.37 -45.62 13.77 -8.98 39.33 -21.47 43.92 -21.47 3.52 0 5.95 6.44 6.52 17.27l0.39 7.48 -20 10.6c-26.83 14.21 -40.97 25 -62.68 47.81 -20.51 21.56 -24.24 23.79 -37.04 22.16zm-340.15 -92.56c-11.74 -7 -30.52 -18.9 -41.74 -26.4 -18.18 -12.16 -20.18 -13.93 -18.43 -16.2 1.08 -1.4 4.43 -5.42 7.45 -8.94 12.7 -14.82 21.6 -38.52 26.2 -69.66 4.37 -29.72 6.22 -32.8 34.97 -58.37 13.3 -11.83 26.3 -29.7 32.24 -44.25l3.46 -8.52 15.86 -4.1c24.25 -6.25 65.34 -19.9 82.02 -27.22 8.23 -3.62 15.18 -6.36 15.44 -6.1 0.27 0.27 1.23 4.5 2.15 9.4 1.84 9.84 1.04 22.8 -2.15 34.85 -2.06 7.77 -2 8.08 3.81 23.34 12.48 32.72 16.23 43.84 16.23 48.03 0 7.11 -4.2 9.84 -16.99 11.04 -6.25 0.59 -12.4 1.86 -13.65 2.83 -1.26 0.97 -5.1 11.25 -8.5 22.85 -10.97 37.19 -16.87 54.13 -20.04 57.62 -5.28 5.8 -13.53 7.06 -27.9 4.24 -18.62 -3.66 -38.3 -10.37 -55.15 -18.83 -8.25 -4.14 -15.25 -7.26 -15.56 -6.95 -1.49 1.49 5.46 12.34 14.72 22.95 9.9 11.33 10.18 11.9 8.2 15.74 -3 5.83 -18.71 49.18 -18.71 51.68 0 1.17 -0.58 2.48 -1.28 2.92 -0.71 0.44 -10.9 -4.94 -22.62 -11.96zM187.67 425.78c-42.05 -66.84 -54.52 -84.65 -66.75 -95.31l-11.56 -10.08 -9.9 9.08c-9.6 8.8 -13.35 10.38 -19.25 8.12 -3.7 -1.42 -5.62 -7.62 -3.59 -11.56 0.93 -1.81 5.8 -7.05 10.8 -11.65l9.12 -8.36 -9.8 -10.34 -9.8 -10.34 -9.1 8.37c-10.77 9.9 -14.28 11.36 -19.35 8.03 -2.72 -1.78 -3.69 -3.77 -3.69 -7.53 0 -4.35 1.38 -6.36 9.28 -13.5 11.2 -10.13 11.42 -9.17 -6.7 -29.65 -7.03 -7.95 -13.54 -15.87 -14.46 -17.6 -4.13 -7.72 -1.45 -11.7 22.72 -33.65 21.57 -19.6 23.67 -19.16 45.5 9.33 8.21 10.72 15.57 19.49 16.35 19.49 0.78 0 5.13 -3.4 9.66 -7.53 9 -8.21 14.66 -9.63 19.06 -4.78 4.7 5.2 3.12 9.86 -6.54 19.21 -4.97 4.8 -9.04 9.3 -9.04 10 0 1.54 15.24 20.74 16.47 20.74 0.48 0 5.14 -3.73 10.37 -8.28 10.28 -8.97 15.88 -10.5 20.37 -5.53 4.8 5.3 3.12 9.45 -8.07 19.95l-10.56 9.9 5.3 10.15c2.91 5.58 5.3 12.14 5.3 14.58 0 3.28 7.63 15.58 29.5 47.53 16.23 23.71 33.24 48.15 37.81 54.33 4.57 6.18 7.72 11.71 7 12.3 -0.71 0.59 -6.04 4.88 -11.83 9.55 -5.8 4.66 -13.56 11.57 -17.25 15.35 -3.69 3.78 -7.5 6.88 -8.48 6.88 -0.97 0 -9.47 -12.25 -18.9 -27.21zm39.35 -111.66c-5.52 -2.96 -4.7 -7.22 2.26 -11.83 10.45 -6.9 68.27 -39.1 93.37 -51.95l24.09 -12.35 3.5 -9.58c13.17 -36.04 18.99 -77.83 15.53 -111.54 -1.65 -16.09 -5.63 -35.44 -7.8 -37.85 -0.63 -0.7 -7.7 2.58 -15.7 7.3 -35.12 20.67 -53 26.41 -82.34 26.46 -28.05 0.05 -38.96 -3.37 -38.96 -12.2 0 -5.2 2 -6.83 11.3 -9.06 18.75 -4.5 39.6 -16.75 84.3 -49.55 32.25 -23.66 43.04 -28.18 70.78 -29.7 35.9 -1.95 65.86 6.4 94.12 26.23 11.43 8.03 73.4 69.61 107.31 106.62 23.41 25.56 23.55 25.68 29.26 25.09 3.16 -0.33 22.34 -3.2 42.63 -6.39 64.13 -10.08 112.89 -16.7 119.42 -16.23 5.83 0.42 6.35 0.81 6.77 5.08 0.4 4.04 -1.02 6.03 -11.29 15.82 -30.85 29.42 -63.87 48.6 -122.51 71.11 -41.26 15.85 -83.4 27.6 -157.29 43.84 -61.88 13.6 -118.74 23.35 -167.9 28.77 -30.55 3.37 -95.86 4.6 -100.9 1.9z"/>
    </g>
</svg>
